<svg id="Layer_1" data-name="Layer 1" xmlns="http://www.w3.org/2000/svg" width="1234" height="329.8" viewBox="0 0 1234 329.8">
  <defs>
    <style>
      .cls-1 { fill: #28cfc6; } .cls-2 { opacity: 0.1; } .cls-3 { fill: #23b58a; } .cls-4 { fill: #783526; } .cls-5 { fill: #76b279; } .cls-6 { fill: #a8ce9e; } .cls-7 { fill: #528e52; } .cls-8 { fill: #9ce450; } .cls-9 { fill: #7dcb41; } .cls-10 { fill: #b8e783; }
    </style>
  </defs>
  <title>
    forest-background
  </title>
  <path class="cls-1" d="M898 208h6l-7.8-15-4.8-9.6-.2-.2h6.5l-5.7-13.4-3-7h4.5l-6.2-14.6-4.8-11-11.2 25.8h5-.2l-8.5 20.4h6.6l-12.8 25 6-.2-12.8 28h56.3l-9.2-20.2-3.6-8z"/>
  <path class="cls-2" d="M898 208h6l-7.8-15-4.8-9.6-.2-.2h6.5l-5.7-13.4-3-7h4.5l-6.2-14.6-4.8-11-3.7 20.8h5.4l-6 22.7h7.2l-9.2 26h9.2l-9.8 29.6h35l-9-20.3-3.7-8z"/>
  <path class="cls-1" d="M992.7 207.7h6l-7.7-15-4.8-9.6h6.3l-5.6-13.5-3-7h4.3L982 148l-4.6-11.2-11.2 26h4.8l-8.7 20.3h6.6l-13 25h6l-12.8 28h56.3l-9-20.2-3.8-8z"/>
  <path class="cls-2" d="M992.7 207.7h6l-7.7-15-4.8-9.6h6.3l-5.6-13.5-3-7h4.3L982 148l-4.6-11.2-3.8 21h5.4l-6 22.6h7.2l-9.2 26h9.2l-9.7 29.7h35l-9-20.2-3.8-8z"/>
  <path class="cls-1" d="M196.3 194h7.3l-9.4-18.5-6-11.6v-.3h7.8l-7-16.5-3.5-8.4h5.4l-7.7-18-6-13.6-13.6 31.8h6L159 164h8l-15.7 30.4h7.4L143 228.8h69l-11.3-25-4.4-9.7z"/>
  <path class="cls-2" d="M196.3 194h7.3l-9.4-18.5-6-11.6v-.3h7.8l-7-16.5-3.5-8.4h5.4l-7.7-18-6-13.6-4.5 25.6h6.6l-7.3 27.8h9l-11.3 32H181l-12 36.2h43l-11.3-25-4.4-9.7z"/>
  <path class="cls-1" d="M244.4 209.4h7.3l-9.4-18.5-6-11.7v-.3h8l-7-16.4-3.6-8.5h5.3l-7.6-17.8-5.8-13.7-13.7 31.8h5.8l-10.7 25h8.2l-15.8 30.5h7.4L191 244h69L249 219.4l-4.4-10z"/>
  <path class="cls-2" d="M244.4 209.4h7.3l-9.4-18.5-6-11.7v-.3h8l-7-16.4-3.6-8.5h5.3l-7.6-17.8-5.8-13.7-4.6 25.7h6.6l-7.4 27.7h9l-11.4 32H229l-12 36h43L249 219.4l-4.4-10z"/>
  <path class="cls-1" d="M937 228.5h3.8l-5-9.7-3-6.2h4l-3.6-8.8-2-4.4h3l-4-9.5-3.2-7.3-7.2 16.8h3l-5.5 13h4.3l-8.3 16.2h3.8l-8 18.2h36.3l-6-13.3-2.3-5.2z"/>
  <path class="cls-2" d="M937 228.5h3.8l-5-9.7-3-6.2h4l-3.6-8.8-2-4.4h3l-4-9.5-3.2-7.3-2.4 13.5h3.5l-3.8 14.7h4.7l-6 16.8h6l-6.4 19h22.7l-6-13-2.3-5.3z"/>
  <path class="cls-1" d="M1177.2 144l7.3-.2-9.4-18.4-5.8-11.6v-.2h7.8l-7-16.4-3.5-8.5h5.3l-7.6-18-5.8-13.6-13.7 32 6-.2-10.7 25h8l-15.7 30.5h7.4l-15.7 34.3h69l-11.3-24.8-4.5-10z"/>
  <path class="cls-2" d="M1177.2 144l7.3-.2-9.4-18.4-5.8-11.6v-.2h7.8l-7-16.4-3.5-8.5h5.3l-7.6-18-5.8-13.6-4.6 25.8h6.6l-7.3 27.7h9l-11.3 32h11.2l-12 36h43l-11.3-24.7-4.5-10z"/>
  <path class="cls-3" d="M471.5 223.4h9.3l-12-23.7-7.6-14.8v-.4h10l-9-21-4.4-11h6.8L455 130l-7.6-17.5L430 153h7.4l-13.6 32 10.4-.2-20.2 39h9.4l-20 44h88.2L477.2 236l-5.7-12.6z"/>
  <path class="cls-2" d="M471.5 223.4h9.3l-12-23.7-7.6-14.8v-.4h10l-9-21-4.4-11h6.8L455 130l-7.6-17.5-6 33h8.6l-9.4 35.4H452l-14.5 41H452l-15.4 46.2h55l-14.4-32-5.7-12.6z"/>
  <path class="cls-3" d="M684 196.4H695l-14.6-28.7-9-18-.3-.3h12.2L672.8 124l-5.5-13 8.3-.2-11.8-27.6-9-21.2-21.3 49.2h9.2l-16.5 38.6h12.5L614.4 197h11.4l-24.4 53H708L691 211.7l-7-15.2z"/>
  <path class="cls-2" d="M684 196.4H695l-14.6-28.7-9-18-.3-.3h12.2L672.8 124l-5.5-13 8.3-.2-11.8-27.6-9-21.2-7.2 39.7H658l-11.5 43H660L643 194H660l-18.4 56H708L691 211.7l-7-15.2z"/>
  <path class="cls-3" d="M744.5 206.7h7.6l-9.7-19.4L736 175v-.2h8.2l-7.2-17.2-3.8-9h5.6l-8-18.7-6-14.4-14.4 33.3h6.2l-11.2 26h8.5-.2l-16.5 32h7.8l-16.4 36H761l-12-26-4.5-10.3z"/>
  <path class="cls-2" d="M744.5 206.7h7.6l-9.7-19.4L736 175v-.2h8.2l-7.2-17.2-3.8-9h5.6l-8-18.7-6-14.4-5 27h7l-7.7 29h9.4l-11.8 33.6h11.8l-12.6 38h45L749.2 217l-4.5-10.3z"/>
  <path class="cls-3" d="M512 223.7h7l-8.8-17.2-5.5-10.7v-.2h7.2l-6.5-15.3-3.3-7.8h5l-7-16.6-5.5-12.7-12.6 29.4h5.5l-10 23h7.7L470.5 224h6.8l-14.6 31.8h64l-10.5-23-4.2-9z"/>
  <path class="cls-2" d="M512 223.7h7l-8.8-17.2-5.5-10.7v-.2h7.2l-6.5-15.3-3.3-7.8h5l-7-16.6-5.5-12.7-4.2 23.7h6l-6.7 25.7h8l-10.2 29.6H498l-11 33.5h39.7l-10.4-23-4.2-9z"/>
  <path class="cls-3" d="M418 217.3h10.7L415 190l-8.8-17-.2-.4h11.6l-10.2-24.2-5.2-12.5h8l-11.4-26.5-8.5-20L370 136h8.8L363 173h12l-23.2 45 11-.2-23.3 50.7H441l-16.5-36.7-6.6-14.5z"/>
  <path class="cls-2" d="M418 217.3h10.7L415 190l-8.8-17-.2-.4h11.6l-10.2-24.2-5.2-12.5h8l-11.4-26.5-8.5-20-7 37.7h10l-11 41h13L379 215h16.4l-17.6 53.3H441l-16.5-36.7-6.6-14.5z"/>
  <path class="cls-3" d="M75.3 202l11-.2L72 174 63.4 157l-.2-.4h12l-10.5-24.7-5.3-12.7h8L55.8 92 47 71.7l-20.5 47.7h9-.2l-16 37.5h12.2L8 202.5h11L-4.6 254H98.8L82 216.7 75.3 202z"/>
  <path class="cls-2" d="M75.3 202l11-.2L72 174 63.4 157l-.2-.4h12l-10.5-24.7-5.3-12.7h8L55.8 92 47 71.7 40 110h10L39 152h13.3l-16.8 48h16.8l-18 54.2h64.5L82 216.7 75.3 202z"/>
  <path class="cls-3" d="M140.2 150l11-.2L137 122l-8.8-17.2-.2-.4h11.8l-10.4-24.7L124 67h8l-11.3-27-8.7-20.4-20.6 47.7h9-.2l-16 37.5 12.2-.2v.2l-23.6 45.7h11L60.4 202h103.4l-17-37.3-6.5-14.8z"/>
  <path class="cls-2" d="M140.2 150l11-.2L137 122l-8.8-17.2-.2-.4h11.8l-10.4-24.7L124 67h8l-11.3-27-8.7-20.4-7 38.5h10l-11 41.7H117l-17 48h17l-18 54.3h64.5l-17-37.3-6.5-14.8z"/>
  <path class="cls-3" d="M1038.5 202.8h10.3l-13.3-26-8.3-16.4-.2-.3h11l-9.6-23-5-12h7.5L1020 99.8l-8.2-19.2-19.3 44.7h8.3l-15 35h11.5l-22.2 43h10.4l-22.2 48.3h97l-15.8-35-6.2-13.8z"/>
  <path class="cls-2" d="M1038.5 202.8h10.3l-13.3-26-8.3-16.4-.2-.3h11l-9.6-23-5-12h7.5L1020 99.8l-8.2-19.2-6.5 36h9.3l-10.3 39h12.4l-16 45h16l-17 51h60.6l-16-35-6-13.8z"/>
  <path class="cls-3" d="M1121.8 166h12.7l-16.4-32.2-10.2-20.2-.2-.4h13.7l-12-28.7-6.2-14.8h9.4L1099 38.5l-10-24-24 55.6h10.4l-18.7 43.6h14.2-.2l-27.4 53.2h13l-27.6 60h120.4l-19.7-43.5-7.7-17.2z"/>
  <path class="cls-2" d="M1121.8 166h12.7l-16.4-32.2-10.2-20.2-.2-.4h13.7l-12-28.7-6.2-14.8h9.4L1099 38.5l-10-24-8 45h11.4l-12.8 48.3h15.4l-19.5 55.8h19.5l-20.8 63h75l-19.7-43.3-7.7-17.2z"/>
  <path class="cls-3" d="M859 250.7h7.6l-9.7-19-6.2-12v-.2h8l-7-17-3.8-8.6 5.5-.2-7.8-18.4-6-14-14 32.7h6l-11 25.8h8.4L812.8 251h7.7l-16.2 35.5h71L863.5 261l-4.5-10.3z"/>
  <path class="cls-2" d="M859 250.7h7.6l-9.7-19-6.2-12v-.2h8l-7-17-3.8-8.6 5.5-.2-7.8-18.4-6-14-4.7 26.4h6.8l-7.6 28.5h9l-11.4 33h11.5L831 286.4h44.2L863.6 261l-4.5-10.3z"/>
  <path class="cls-4" d="M345.8 286.5a3.3 3.3 0 0 1-3.3 3.3H278a3.3 3.3 0 0 1-3.3-3.3 3.3 3.3 0 0 1 3.3-3.3h64.5a3.3 3.3 0 0 1 3.3 3.3z"/>
  <path class="cls-4" d="M298.7 135.3h11.5v151.2h-11.5z"/>
  <path class="cls-4" d="M310.2 248c0 15 .7 35.2 11 35.2 5.6 0 1.3 3.3 1.3 3.3h-15.3zM298.8 248c0 15-.7 35.2-11 35.2-5.5 0-1.3 3.3-1.3 3.3H302z"/>
  <path class="cls-5" d="M305 46.5c-4.5 21-41.4 50.3-66 47.3 17.2 13.6 35.3 10.5 41.4 4.2-8 12.6-24 40.5-55 45 14 3.7 40.8 0 47.5-4.5-14.2 16-47.3 48.7-75.3 49.6 26 11.8 53 .8 69-7.7-12.3 15.4-34 38.3-75.7 44.6 24 3.3 59 0 68.4-4-18 12-44.4 25-58.6 24.6 20 2.8 49.2-.3 55-1.6-9.5 5-44 18.2-46.2 19 29 3 67-.8 95.4-16 18.4 20 65.7 17 103.5 11.5-10.5-4.7-55-17.6-64-35.2 21.5 5.7 49.5.3 59-4.4-16.6-1.6-53.6-22-60-37.4 21 7 46.2-1.3 55.3-6.3-10.2-.6-46-12.6-49.3-25 18.5 4 32-4.5 39-10.8-9.5.2-51.4-22.3-55.5-40.5 6.8-.3 19-3.5 27-7.6-13.2-2-52.7-18-55-45z"/>
  <path class="cls-6" d="M300.3 92c-8.5 8.2-25.3 22.3-43.5 20 14.5 5.7 33.7 14.7 43.5 1.2v-21zM300.3 129.8c-3.4 8.4-20 40.4-40.2 46.2 12.3 4.7 25.8 5.7 31-2-4.6 20.2-11 32-33.2 46 10.4 5 35.4 1 42.4-7.6v-82.6z"/>
  <path class="cls-7" d="M344.4 223.3c21.6 5.7 49.6.3 59-4.4-16.5-1.7-53.6-22-60-37.5 21.2 7 46.2-1.2 55.3-6.2-10-.7-45.8-12.6-49.2-25.2 18.4 4.3 32-4.3 39-10.5-9.6.2-51.5-22.3-55.5-40.5 6.7-.4 19-3.5 27-7.6-12.5-1.8-48.7-16.3-54.3-41 0 0-2.6 24.5 27.2 36.3-8.4 3.2-15.5 7-22.3 6.7 0 0 6.4 30.5 45.6 44-7.5 5.5-21.8 12.7-39.7 6.7 2 13 36.4 28.4 46.4 30-9.6 4-35.3 9.7-55.6.7 4.8 16 39.6 40 56 43.2-9.7 3.5-37 6-57.7-1 0 0 16.2 33 58.6 41a387 387 0 0 1-41.8-.4c22.8 8 57.2 5 86 1-10.5-4.8-55-17.7-64-35.3z"/>
  <path class="cls-4" d="M821.6 317a3 3 0 0 1-3 3h-59a3 3 0 0 1-3-3 3 3 0 0 1 3-3h59a3 3 0 0 1 3 3z"/>
  <path class="cls-4" d="M778.5 178.6H789V317h-10.5z"/>
  <path class="cls-4" d="M789 281.6c0 13.8.7 32.2 10 32.2 5.2 0 1.3 3 1.3 3h-14zM778.7 281.6c0 13.8-.7 32.2-10 32.2-5 0-1.2 3-1.2 3h14z"/>
  <path class="cls-5" d="M821.3 185.7c7.5 2.7 22.4-3.6 25.4-11.3-7.2.2-36.3-12-39.4-28.6 4.8 2.4 17.2 0 20-6-9.4-1.5-38.7-16.3-43-39-4.2 22.7-33 37.5-42.6 39 3 6 15.3 8.4 20 6-3 16.7-32 28.8-39.3 28.6 3 7.7 18 14 25.4 11.2-2.6 11.5-29.2 29-37 29.5 11.3 14 62 20.3 73.8-3 11.8 23.3 62.5 17 73.6 3-7.7-.5-34.3-18-37-29.3z"/>
  <path class="cls-7" d="M821.3 185.7c7.5 2.7 22.4-3.6 25.4-11.3-7.2.2-36.3-12-39.4-28.6 4.8 2.4 17.2 0 20-6-9.4-1.5-38.7-16.3-43-39-1.7 9 9.4 38 15 39-2.8 6-8.4 9.3-11.4 6.6 3 16.6 23.5 28.2 30.7 28-3 7.7-18 14-25.4 11.3 2.6 11.5 29.2 28.8 37 29.4-4 5-13.5 9.2-24.2 11.2 19.5 4 44.7-1.8 52.2-11-7.7-.7-34.3-18-37-29.5z"/>
  <path class="cls-6" d="M784.3 100.8c-5.8 19.2-22.2 27-27.2 27.8 2.6 4.8 13 7 17 5-2.5 14-27 24.2-33 24 2.4 6.5 15 11.8 21.3 9.6-2.2 9.6-24.7 24.3-31 24.8 5.6 5.4 19 15 30.2 10.4-3.5 6-16 12.3-32.4 8.2 24 24.3 49.6 12.3 53 5.3z"/>
  <path class="cls-4" d="M596.8 291a3 3 0 0 1-3 3h-57.5a3 3 0 0 1-3-3 3 3 0 0 1 3-3h57.5a3 3 0 0 1 3 3z"/>
  <path class="cls-4" d="M554.8 156H565v135H555z"/>
  <path class="cls-4" d="M565 256.7c0 13.4.7 31.4 10 31.4 5 0 1 3 1 3h-13.6zM555 256.7c0 13.4-.7 31.4-10 31.4-5 0-1 3-1 3h13.6z"/>
  <path class="cls-5" d="M560.5 80.3S505 190 491.7 207.3c37 27.3 105 27.7 140.2 0-8.6-10.7-71.5-127-71.5-127z"/>
  <path class="cls-6" d="M559.2 104.7c-5 10-28.6 56.4-35.3 65.3 38.4 17 46-35.3 35.2-65.3z"/>
  <path class="cls-7" d="M601.4 155c-11.5 32.5-38.7 55.4-70.5 55.4a66.7 66.7 0 0 1-34.8-9.8l-4.5 6.7c36.8 27.3 105 27.8 140.2 0-3.6-4.5-16.7-27.3-30.6-52.4z"/>
  <path class="cls-4" d="M955.7 284a2.4 2.4 0 0 1-2.5 2.3h-47.7a2.5 2.5 0 0 1-2.5-2.4 2.5 2.5 0 0 1 2.5-2.6h47.7a2.4 2.4 0 0 1 2.5 2.5z"/>
  <path class="cls-4" d="M920.8 172h8.5v111.8h-8.5z"/>
  <path class="cls-4" d="M929.4 255.4c0 11 .5 26 8 26 4.2 0 1 2.5 1 2.5h-11.3zM921 255.4c0 11-.6 26-8.2 26-4 0-1 2.5-1 2.5h11.4z"/>
  <path class="cls-5" d="M925.5 109s-46 91-57 105.4c30.6 22.7 87.2 23 116.3 0-7-9-59.3-105.4-59.3-105.4z"/>
  <path class="cls-6" d="M924.5 129.3c-4.3 8.3-23.7 46.8-29.3 54.2 32 14 38.2-29.3 29.3-54.2z"/>
  <path class="cls-7" d="M959.5 171c-9.6 27-32 46-58.5 46a55.4 55.4 0 0 1-28.8-8.2c-1.4 2.4-2.7 4.3-3.7 5.6 30.6 22.7 87.2 23 116.3 0-3-3.7-13.7-22.7-25.3-43.5z"/>
  <path class="cls-4" d="M468.7 290.4a2.5 2.5 0 0 1-2.5 2.5h-49a2.5 2.5 0 0 1-2.6-2.6 2.5 2.5 0 0 1 2.6-2.5h49a2.5 2.5 0 0 1 2.5 2.4z"/>
  <path class="cls-4" d="M433 175.6h8.7v114.8H433z"/>
  <path class="cls-4" d="M441.7 261c0 11.5.5 27 8.3 27 4.2 0 1 2.4 1 2.4h-11.6zM433 261c0 11.5-.5 27-8.3 27-4.2 0-1 2.4-1 2.4h11.6z"/>
  <path class="cls-5" d="M468.4 181.5c6.2 2.2 18.6-3 21-9.4-6 .3-30-9.8-32.7-23.6 4 2 14.3 0 16.7-5-8-1.2-32-13.5-35.7-32.3-3.6 19-27.5 31.2-35.4 32.5 2.4 4.8 12.7 7 16.7 5-2.6 13.7-26.7 23.8-32.7 23.6 2.5 6.5 15 11.8 21 9.5-2 9.5-24.2 24-30.6 24.4 9.3 11.4 51.3 16.7 61-2.6 10 19.3 52 14 61.3 2.5-6.4-.6-28.4-15-30.6-24.5z"/>
  <path class="cls-7" d="M468.4 181.5c6.2 2.2 18.6-3 21-9.4-6 .3-30-9.8-32.7-23.6 4 2 14.3 0 16.7-5-8-1.2-32-13.5-35.7-32.3-1.4 7.5 7.7 31.7 12.5 32.5-2.4 4.8-7 7.6-9.5 5.4 2.5 13.7 19.5 23.3 25.5 23-2.5 6.5-15 11.7-21 9.5 2 9.5 24.2 24 30.6 24.4-3.4 4-11 7.4-20 9 16 3.5 37-1.4 43.3-9-6.4-.6-28.4-15-30.6-24.5z"/>
  <path class="cls-6" d="M437.7 111c-4.8 16-18.4 22.4-22.6 23 2 4 10.8 6 14.2 4.2-2 11.7-22.5 20.2-27.6 20 2 5.4 12.6 9.8 17.8 8-1.8 8-20.4 20-25.8 20.5 4.7 4.6 15.8 12.5 25.2 8.7-3 5-13.4 10.2-27 6.8 20 20.2 41 10.2 44 4.4z"/>
  <circle class="cls-8" cx="960.4" cy="291" r="59.2"/>
  <circle class="cls-8" cx="881.3" cy="269.7" r="49.8"/>
  <circle class="cls-8" cx="819.5" cy="294.4" r="49.8"/>
  <circle class="cls-8" cx="760.9" cy="271.2" r="40.3"/>
  <circle class="cls-8" cx="685.1" cy="252.9" r="40.3"/>
  <circle class="cls-8" cx="955.1" cy="229.8" r="17.1"/>
  <circle class="cls-8" cx="1003.5" cy="231.6" r="4.5"/>
  <circle class="cls-8" cx="1040.8" cy="210.3" r="21.3"/>
  <circle class="cls-8" cx="1098" cy="197.7" r="15"/>
  <circle class="cls-8" cx="1160.4" cy="152.5" r="26.1"/>
  <circle class="cls-8" cx="1209.1" cy="153.3" r="12.1"/>
  <circle class="cls-8" cx="124.8" cy="286.9" r="108.1"/>
  <circle class="cls-8" cx="247.5" cy="326.5" r="85.5"/>
  <circle class="cls-8" cx="350" cy="315.3" r="59.2"/>
  <circle class="cls-8" cx="429.1" cy="293.9" r="49.8"/>
  <circle class="cls-8" cx="490.9" cy="318.7" r="49.8"/>
  <circle class="cls-8" cx="549.4" cy="295.4" r="40.3"/>
  <circle class="cls-8" cx="589.7" cy="268.9" r="40.3"/>
  <circle class="cls-8" cx="625.3" cy="277.2" r="40.3"/>
  <circle class="cls-8" cx="521.9" cy="252.2" r="22.4"/>
  <circle class="cls-8" cx="481.2" cy="243" r="27.2"/>
  <circle class="cls-8" cx="79.4" cy="191.6" r="26.1"/>
  <ellipse class="cls-9" cx="960.4" cy="295.5" rx="59.2" ry="57.2"/>
  <ellipse class="cls-9" cx="881.3" cy="275" rx="49.8" ry="48.1"/>
  <ellipse class="cls-9" cx="819.5" cy="298.9" rx="49.8" ry="48.1"/>
  <ellipse class="cls-9" cx="760.9" cy="276.4" rx="40.3" ry="38.9"/>
  <ellipse class="cls-9" cx="685.1" cy="258.8" rx="40.3" ry="38.9"/>
  <ellipse class="cls-9" cx="955.1" cy="236.4" rx="17.1" ry="16.5"/>
  <ellipse class="cls-9" cx="1003.5" cy="238.2" rx="4.5" ry="4.3"/>
  <ellipse class="cls-9" cx="1040.8" cy="217.7" rx="21.3" ry="20.5"/>
  <ellipse class="cls-9" cx="1098" cy="205.4" rx="15" ry="14.5"/>
  <ellipse class="cls-9" cx="1160.4" cy="161.8" rx="26.1" ry="25.3"/>
  <ellipse class="cls-9" cx="1209.1" cy="162.6" rx="12.1" ry="11.7"/>
  <ellipse class="cls-9" cx="124.8" cy="291.6" rx="108.1" ry="104.4"/>
  <path class="cls-8" d="M1076 267.4a108.2 108.2 0 1 0 108-108.2 108 108 0 0 0-108 108.2z"/>
  <path class="cls-9" d="M1076 272c0 57.7 48.4 104.5 108 104.5a110.8 110.8 0 0 0 50-11.8c34.6-17.4 58.2-52.4 58.2-92.6s-23.6-75.2-58.2-92.6a110.8 110.8 0 0 0-50-11.8c-59.6 0-108 46.8-108 104.5z"/>
  <ellipse class="cls-9" cx="247.5" cy="329.8" rx="85.5" ry="82.5"/>
  <ellipse class="cls-9" cx="350" cy="318.9" rx="59.2" ry="57.2"/>
  <ellipse class="cls-9" cx="429.1" cy="298.4" rx="49.8" ry="48.1"/>
  <ellipse class="cls-9" cx="490.9" cy="322.3" rx="49.8" ry="48.1"/>
  <ellipse class="cls-9" cx="549.4" cy="299.8" rx="40.3" ry="38.9"/>
  <ellipse class="cls-9" cx="589.7" cy="274.2" rx="40.3" ry="38.9"/>
  <ellipse class="cls-9" cx="625.3" cy="282.2" rx="40.3" ry="38.9"/>
  <ellipse class="cls-9" cx="521.9" cy="265.2" rx="22.4" ry="21.6"/>
  <ellipse class="cls-9" cx="481.2" cy="252.6" rx="27.2" ry="26.3"/>
  <ellipse class="cls-9" cx="79.4" cy="199.5" rx="26.1" ry="25.3"/>
  <circle class="cls-8" cx="720.6" cy="244.7" r="40.3"/>
  <ellipse class="cls-9" cx="720.6" cy="250.8" rx="40.3" ry="38.9"/>
  <circle class="cls-8" cx="1062.9" cy="302.2" r="85.5"/>
  <ellipse class="cls-9" cx="1062.9" cy="306.4" rx="85.5" ry="82.5"/>
  <path class="cls-8" d="M0 363.4a108 108 0 0 0 58.2-96 108 108 0 0 0-58.2-96"/>
  <path class="cls-9" d="M0 364.7c34.6-17.4 58.2-52.3 58.2-92.6S34.6 197 0 179.5"/>
  <path class="cls-10" d="M0 271h1234v60.6H0z"/>
</svg>
