<?xml version="1.0" encoding="utf-8"?>
<!-- Generator: Adobe Illustrator 19.2.1, SVG Export Plug-In . SVG Version: 6.00 Build 0)  -->
<svg version="1.1" id="Layer_1" xmlns="http://www.w3.org/2000/svg" xmlns:xlink="http://www.w3.org/1999/xlink" x="0px" y="0px"
	 viewBox="0 0 330 370" style="enable-background:new 0 0 330 370;" xml:space="preserve">
<style type="text/css">
	.st0{fill:#783526;}
	.st1{fill:#76B279;}
	.st2{fill:#A8CE9E;}
	.st3{fill:#528E52;}
</style>
<g>
	<g>
		<path class="st0" d="M234.5,365c0,2.7-2.2,5-5,5h-96.9c-2.7,0-5-2.2-5-5l0,0c0-2.7,2.2-5,5-5h96.9
			C232.3,360.1,234.5,362.3,234.5,365L234.5,365z"/>
		<rect x="163.8" y="138" class="st0" width="17.3" height="227.1"/>
		<path class="st0" d="M181.1,307.2c0,22.5,1.1,52.9,16.5,52.9c8.3,0,2,5,2,5h-23L181.1,307.2z"/>
		<path class="st0" d="M164,307.2c0,22.5-1.1,52.9-16.5,52.9c-8.3,0-2,5-2,5h23L164,307.2z"/>
	</g>
	<path class="st1" d="M173.2,4.6c-6.7,31.8-62.1,75.5-99.2,71.1c26,20.4,53.2,15.7,62.3,6.3c-12.2,18.9-35.9,60.8-82.5,67.4
		c21.3,5.7,61.3,0,71.4-6.6c-21.3,24.1-70.9,73.1-112.9,74.5c39.2,17.4,79.5,0.9,103.8-11.8c-18.7,23.1-51.1,57.5-113.9,67
		c35.9,5.2,88.6,0,102.8-5.7c-27.3,17.9-66.8,37.3-88.1,36.8c29.9,4.2,73.9-0.5,82.5-2.4c-14.2,7.5-65.8,27.4-69.4,28.3
		c43.5,4.7,100.7-0.9,143.3-24.1c27.6,30.4,98.7,25.5,155.4,17.5c-15.7-7.1-82.5-26.5-96.2-52.9c32.4,8.5,74.4,0.5,88.6-6.6
		c-24.8-2.4-80.5-33-90.1-56.1c31.7,10.4,69.4-1.9,83-9.4c-15.2-0.9-68.9-18.9-73.9-37.7c27.7,6.3,47.9-6.6,58.4-16
		c-14.2,0.3-77.1-33.5-83.2-60.8c10.1-0.5,28.4-5.2,40.5-11.3C236,69.2,176.8,45.2,173.2,4.6z"/>
	<path class="st2" d="M166.2,73.1c-12.7,12.2-38,33.4-65.3,29.9c21.8,8.6,50.6,22.1,65.3,1.8C166.2,96.7,166.2,73.1,166.2,73.1z"/>
	<path class="st2" d="M166.2,129.6c-5.1,12.7-29.9,60.8-60.2,69.4c18.2,7.1,38.5,8.6,46.6-3.1c-7.1,30.4-16.7,48.1-50.1,69.4
		c15.7,7.1,53.2,1.5,63.8-11.6C166.2,215.7,166.2,129.6,166.2,129.6z"/>
	<path class="st3" d="M232.5,270.1c32.4,8.5,74.4,0.5,88.6-6.6c-24.8-2.4-80.5-33-90.1-56.1c31.7,10.4,69.4-1.9,83-9.4
		c-15.2-0.9-68.9-18.9-73.9-37.7c27.7,6.3,47.9-6.6,58.4-16c-14.2,0.3-77.1-33.5-83.2-60.8c10.1-0.5,28.4-5.2,40.5-11.3
		c-18.8-2.7-73.2-24.6-81.6-61.5c0,0-3.8,36.7,40.9,54.5c-12.5,4.8-23.1,10.4-33.3,10c0,0,9.7,45.9,68.5,66.1
		c-11.4,8.3-32.8,19.1-59.7,10.1c3.1,19.3,54.7,42.5,69.7,45c-14.4,6.1-53,14.5-83.6,1c7.2,24,59.6,60.1,84,64.9
		c-14.5,5.5-55.4,9.2-86.5-1.6c0,0,24.4,49.7,88.1,61.5c-20.1,0.8-41.9,1-62.9-0.5c34.3,11.8,85.9,7.6,129.2,1.5
		C313,315.9,246.1,296.5,232.5,270.1z"/>
</g>
</svg>
