<svg id="Layer_1" data-name="Layer 1" xmlns="http://www.w3.org/2000/svg" viewBox="0 0 383.36 429"><defs><style>.cls-1{fill:#783526;}.cls-2{fill:#76b279;}.cls-3{fill:#a8ce9e;}.cls-4{fill:#528e52;}</style></defs><title>pinetree1</title><path class="cls-1" d="M277.14,429.17a5.82,5.82,0,0,1-5.82,5.83H157.6a5.82,5.82,0,0,1-5.82-5.83h0a5.82,5.82,0,0,1,5.82-5.82H271.32a5.82,5.82,0,0,1,5.82,5.82h0Z" transform="translate(-4.3 -6)"/><rect class="cls-1" x="189.83" y="156.57" width="20.33" height="266.6"/><path class="cls-1" d="M214.46,361.28c0,26.47,1.24,62.07,19.37,62.07,9.78,0,2.3,5.82,2.3,5.82h-27Z" transform="translate(-4.3 -6)"/><path class="cls-1" d="M194.36,361.28c0,26.47-1.24,62.07-19.37,62.07-9.78,0-2.3,5.82-2.3,5.82h27Z" transform="translate(-4.3 -6)"/><path class="cls-2" d="M205.2,6c-7.92,37.28-72.9,88.59-116.5,83.43,30.52,24,62.4,18.45,73.11,7.38C147.54,119,119.61,168.23,64.92,176c25,6.64,71.92,0,83.81-7.75-25,28.24-83.21,85.82-132.55,87.49,46,20.48,93.32,1.1,121.85-13.84C116,269,78,309.42,4.3,320.5c42.2,6.09,104,0,120.66-6.65C92.86,334.89,46.5,357.6,21.53,357c35.07,5,86.78-.55,96.88-2.77-16.64,8.86-77.27,32.11-81.43,33.22C88.1,393,155.27,386.39,205.2,359.26c32.46,35.63,115.88,30,182.46,20.55-18.42-8.3-96.87-31.07-112.92-62.08,38,10,87.37.55,104-7.75-29.13-2.77-94.51-38.76-105.8-65.89,37.25,12.18,81.43-2.21,97.48-11.07-17.83-1.11-80.84-22.15-86.79-44.3,32.5,7.39,56.27-7.75,68.56-18.82-16.64.37-90.55-39.31-97.68-71.43,11.89-.55,33.29-6.09,47.55-13.29C278.9,81.86,209.36,53.62,205.2,6Z" transform="translate(-4.3 -6)"/><path class="cls-3" d="M196.87,86.38c-14.86,14.27-44.58,39.23-76.67,35.07,25.56,10.1,59.44,25.93,76.67,2.16V86.38Z" transform="translate(-4.3 -6)"/><path class="cls-3" d="M196.87,152.81c-5.94,14.86-35.06,71.32-70.73,81.47,21.4,8.28,45.17,10.14,54.68-3.6-8.32,35.66-19.61,56.47-58.84,81.43,18.42,8.32,62.41,1.78,74.89-13.67V152.81Z" transform="translate(-4.3 -6)"/><path class="cls-4" d="M274.74,317.73c38,10,87.37.55,104-7.75-29.13-2.77-94.51-38.76-105.8-65.89,37.25,12.18,81.43-2.21,97.48-11.07-17.83-1.11-80.84-22.15-86.79-44.3,32.5,7.39,56.27-7.75,68.56-18.82-16.64.37-90.55-39.31-97.68-71.43,11.89-.55,33.29-6.09,47.55-13.29-22-3.16-85.9-28.84-95.75-72.26,0,0-4.45,43.1,48,64-14.66,5.62-27.11,12.26-39.12,11.75,0,0,11.36,53.84,80.45,77.59C282.32,176,257.14,188.65,225.56,178c3.68,22.64,64.24,49.93,81.87,52.83-16.86,7.2-62.27,17.06-98.11,1.18,8.5,28.13,69.92,70.54,98.61,76.23-17,6.43-65.06,10.75-101.61-1.85,0,0,28.65,58.35,103.42,72.22-23.61.93-49.23,1.17-73.79-.57,40.28,13.89,100.88,8.92,151.7,1.74C369.23,371.5,290.79,348.74,274.74,317.73Z" transform="translate(-4.3 -6)"/></svg>