<svg id="Layer_1" data-name="Layer 1" xmlns="http://www.w3.org/2000/svg" viewBox="0 0 208.15 317.33"><defs><style>.cls-1{fill:#783526;}.cls-2{fill:#76b279;}.cls-3{fill:#a8ce9e;}.cls-4{fill:#528e52;}</style></defs><title>traingletree</title><path class="cls-1" d="M157,315.62a4.38,4.38,0,0,1-4.38,4.38H67.19a4.38,4.38,0,0,1-4.38-4.38h0a4.38,4.38,0,0,1,4.38-4.38h85.45a4.38,4.38,0,0,1,4.38,4.38h0Z" transform="translate(-1 -2.67)"/><rect class="cls-1" x="93.63" y="112.61" width="15.28" height="200.34"/><path class="cls-1" d="M109.92,264.6c0,19.89.93,46.64,14.56,46.64,7.35,0,1.73,4.38,1.73,4.38H105.88Z" transform="translate(-1 -2.67)"/><path class="cls-1" d="M94.81,264.6c0,19.89-.93,46.64-14.56,46.64-7.35,0-1.73,4.38-1.73,4.38H98.85Z" transform="translate(-1 -2.67)"/><path class="cls-2" d="M103,2.67S20.57,165.47,1,191.26c54.68,40.63,156,41.24,208.15,0C196.47,175.33,103,2.67,103,2.67Z" transform="translate(-1 -2.67)"/><path class="cls-3" d="M101.23,38.92c-7.66,15-42.44,83.78-52.51,97C105.88,161.19,117.07,83.46,101.23,38.92Z" transform="translate(-1 -2.67)"/><path class="cls-4" d="M163.81,113.47c-17.09,48.39-57.5,82.39-104.63,82.39A99.09,99.09,0,0,1,7.66,181.26C5,185.54,2.75,189,1,191.26c54.68,40.63,156,41.24,208.15,0C203.86,184.6,184.54,150.72,163.81,113.47Z" transform="translate(-1 -2.67)"/></svg>